# Blender v2.92.0 OBJ File: ''
# www.blender.org
mtllib inga.mtl
o pendulum_clock_texture
v 0.406644 3.805659 0.445795
v 0.377480 3.952278 0.445795
v 0.377480 3.952278 0.524922
v 0.406644 3.805659 0.524922
v 0.023508 3.805659 0.579777
v 0.377480 3.659039 0.524922
v 0.377480 3.659039 0.445795
v 0.294426 3.534741 0.524922
v 0.335953 3.596890 0.524922
v 0.170128 3.451687 0.524922
v 0.170128 3.451687 0.445795
v 0.294426 3.534741 0.445795
v 0.023508 3.422523 0.524922
v 0.023508 3.422523 0.445795
v -0.123112 3.451687 0.524922
v -0.123112 3.451687 0.445795
v -0.247410 3.534741 0.524922
v -0.247410 3.534741 0.445795
v -0.330463 3.659039 0.524922
v -0.330463 3.659039 0.445795
v -0.359628 3.805659 0.524922
v -0.359628 3.805659 0.445795
v -0.330463 3.952278 0.524922
v -0.330463 3.952278 0.445795
v -0.247410 4.076577 0.524922
v -0.288937 4.014428 0.524922
v -0.123112 4.159630 0.524922
v -0.123112 4.159630 0.445795
v -0.247410 4.076577 0.445795
v 0.023508 4.188795 0.524922
v 0.023508 4.188795 0.445795
v 0.170128 4.159630 0.524922
v 0.170128 4.159630 0.445795
v 0.294426 4.076577 0.524922
v 0.294426 4.076577 0.445795
v 0.047526 4.093129 0.505809
v 0.047526 6.853112 0.505809
v -0.000095 6.853112 0.505809
v -0.000095 4.093129 0.458188
v 0.047526 4.093129 0.458188
v -0.000095 6.853112 0.458188
v -0.000095 4.093129 0.505809
v 0.047526 6.853112 0.458188
vt 0.332460 0.930574
vt 0.337691 0.937234
vt 0.336333 0.937761
vt 0.257037 0.989497
vt 0.286720 0.945084
vt 0.276292 0.997473
vt 0.321068 0.925789
vt 0.331392 0.937208
vt 0.297141 0.997473
vt 0.286717 0.997495
vt 0.316395 0.989497
vt 0.285673 0.937132
vt 0.285686 0.922015
vt 0.304575 0.922727
vt 0.331133 0.974761
vt 0.267491 0.923205
vt 0.339110 0.955508
vt 0.252076 0.926277
vt 0.267825 0.936884
vt 0.339113 0.934666
vt 0.241434 0.931197
vt 0.252760 0.936828
vt 0.331142 0.915408
vt 0.237486 0.937915
vt 0.242462 0.936998
vt 0.316403 0.900670
vt 0.242718 0.944575
vt 0.238845 0.937388
vt 0.297148 0.892694
vt 0.254109 0.949360
vt 0.243786 0.937941
vt 0.276299 0.892694
vt 0.286723 0.892673
vt 0.257044 0.900670
vt 0.289492 0.953134
vt 0.270603 0.952422
vt 0.270953 0.937637
vt 0.242307 0.915406
vt 0.307687 0.951944
vt 0.289504 0.938017
vt 0.234330 0.934660
vt 0.323102 0.948872
vt 0.307353 0.938265
vt 0.234326 0.955502
vt 0.333744 0.943951
vt 0.322417 0.938321
vt 0.242298 0.974760
vt 0.332715 0.938150
vt 0.299198 0.996437
vt 0.236714 0.954687
vt 0.340949 0.933953
vt 0.239304 0.931785
vt 0.337469 0.931785
vt 0.337469 0.939807
vt 0.239304 0.947828
vt 0.239304 0.955850
vt 0.237611 0.955850
vt 0.337469 0.947828
vt 0.239304 0.939807
vt 0.337469 0.923764
vt 0.339163 0.923764
vt 0.339163 0.931785
vt 0.239304 0.923764
vt 0.337469 0.955850
vt 0.262499 0.937851
vt 0.312679 0.937298
vt 0.320306 0.936544
vt 0.304225 0.937512
vt 0.254872 0.938604
vt 0.278465 0.892202
vt 0.299198 0.892202
vt 0.318353 0.900137
vt 0.333014 0.914798
vt 0.340949 0.954687
vt 0.333014 0.973842
vt 0.318353 0.988503
vt 0.278465 0.996437
vt 0.259309 0.988503
vt 0.244648 0.973842
vt 0.236714 0.933953
vt 0.244648 0.914798
vt 0.259309 0.900137
vt 0.237611 0.947828
vn 0.9808 0.1951 0.0000
vn 0.1417 -0.0282 0.9895
vn 0.9808 -0.1951 0.0000
vn 0.1201 -0.0803 0.9895
vn 0.0803 -0.1201 0.9895
vn 0.5556 -0.8315 0.0000
vn 0.0282 -0.1417 0.9895
vn 0.1951 -0.9808 0.0000
vn -0.0282 -0.1417 0.9895
vn -0.1951 -0.9808 0.0000
vn -0.0803 -0.1201 0.9895
vn -0.5556 -0.8315 0.0000
vn -0.1201 -0.0803 0.9895
vn -0.8315 -0.5556 0.0000
vn -0.1417 -0.0282 0.9895
vn -0.9808 -0.1951 0.0000
vn -0.1417 0.0282 0.9895
vn -0.9808 0.1951 0.0000
vn -0.1201 0.0802 0.9895
vn -0.1201 0.0803 0.9895
vn -0.0802 0.1201 0.9895
vn -0.5556 0.8315 0.0000
vn -0.0282 0.1417 0.9895
vn -0.1951 0.9808 0.0000
vn 0.0282 0.1417 0.9895
vn 0.1951 0.9808 0.0000
vn 0.0803 0.1201 0.9895
vn 0.5556 0.8315 0.0000
vn 0.1201 0.0803 0.9895
vn 0.8315 0.5556 0.0000
vn 0.1417 0.0282 0.9895
vn 0.0000 0.0000 -1.0000
vn 0.0000 -0.0000 1.0000
vn 0.0000 -1.0000 0.0000
vn -1.0000 0.0000 0.0000
vn 0.0000 1.0000 0.0000
vn 1.0000 0.0000 0.0000
vn -0.8315 0.5556 -0.0000
vn 0.8315 -0.5556 -0.0000
usemtl clock_texture.006
s 1
f 1/1/1 2/2/1 3/3/1
f 4/4/2 5/5/2 6/6/2
f 7/7/3 1/1/3 4/8/3
f 5/5/4 8/9/4 9/10/4
f 8/9/5 5/5/5 10/11/5
f 10/12/6 11/13/6 12/14/6
f 10/11/7 5/5/7 13/15/7
f 14/16/8 11/13/8 10/12/8
f 13/15/9 5/5/9 15/17/9
f 16/18/10 14/16/10 13/19/10
f 15/17/11 5/5/11 17/20/11
f 18/21/12 16/18/12 15/22/12
f 17/20/13 5/5/13 19/23/13
f 20/24/14 18/21/14 17/25/14
f 19/23/15 5/5/15 21/26/15
f 22/27/16 20/24/16 19/28/16
f 21/26/17 5/5/17 23/29/17
f 24/30/18 22/27/18 21/31/18
f 5/5/19 25/32/20 26/33/19
f 25/32/21 5/5/21 27/34/21
f 28/35/22 29/36/22 25/37/22
f 27/34/23 5/5/23 30/38/23
f 31/39/24 28/35/24 27/40/24
f 30/38/25 5/5/25 32/41/25
f 33/42/26 31/39/26 30/43/26
f 32/41/27 5/5/27 34/44/27
f 35/45/28 33/42/28 32/46/28
f 34/44/29 5/5/29 3/47/29
f 2/2/30 35/45/30 34/48/30
f 3/47/31 5/5/31 4/4/31
f 22/49/32 31/50/32 14/51/32
f 36/52/33 37/53/33 38/54/33
f 39/55/34 40/56/34 36/57/34
f 41/58/35 39/55/35 42/59/35
f 43/60/36 41/61/36 38/62/36
f 40/63/37 43/60/37 37/53/37
f 43/64/32 40/56/32 39/55/32
f 29/36/38 24/30/38 26/65/38
f 12/14/39 7/7/39 9/66/39
f 4/8/1 1/1/1 3/3/1
f 6/67/3 7/7/3 4/8/3
f 6/6/4 5/5/4 9/10/4
f 8/68/6 10/12/6 12/14/6
f 13/19/8 14/16/8 10/12/8
f 15/22/10 16/18/10 13/19/10
f 17/25/12 18/21/12 15/22/12
f 19/28/14 20/24/14 17/25/14
f 21/31/16 22/27/16 19/28/16
f 23/69/18 24/30/18 21/31/18
f 23/29/19 5/5/19 26/33/19
f 27/40/22 28/35/22 25/37/22
f 30/43/24 31/39/24 27/40/24
f 32/46/26 33/42/26 30/43/26
f 34/48/28 35/45/28 32/46/28
f 3/3/30 2/2/30 34/48/30
f 1/70/32 7/71/32 12/72/32
f 12/72/32 11/73/32 14/51/32
f 14/51/32 16/74/32 18/75/32
f 18/75/32 20/76/32 22/49/32
f 22/49/32 24/77/32 31/50/32
f 29/78/32 28/79/32 31/50/32
f 31/50/32 33/80/32 35/81/32
f 35/81/32 2/82/32 31/50/32
f 1/70/32 12/72/32 14/51/32
f 14/51/32 18/75/32 22/49/32
f 24/77/32 29/78/32 31/50/32
f 31/50/32 2/82/32 1/70/32
f 1/70/32 14/51/32 31/50/32
f 42/59/33 36/52/33 38/54/33
f 42/83/34 39/55/34 36/57/34
f 38/54/35 41/58/35 42/59/35
f 37/53/36 43/60/36 38/62/36
f 36/52/37 40/63/37 37/53/37
f 41/58/32 43/64/32 39/55/32
f 23/69/38 26/65/38 24/30/38
f 25/37/38 29/36/38 26/65/38
f 6/67/39 9/66/39 7/7/39
f 8/68/39 12/14/39 9/66/39
