# Blender v2.92.0 OBJ File: ''
# www.blender.org
mtllib small_clock.mtl
o face_button_clock_texture.002
v -0.005025 6.872283 0.863053
v -0.002520 6.874787 0.870235
v -0.013314 6.885581 0.863053
v -0.005025 6.898879 0.863053
v -0.002520 6.896375 0.870235
v 0.008274 6.907169 0.863053
v 0.021572 6.898879 0.863053
v 0.019068 6.896375 0.870235
v 0.029862 6.885581 0.863053
v 0.021572 6.872283 0.863053
v 0.019068 6.874787 0.870235
v 0.008274 6.885581 0.877417
v 0.008274 6.863993 0.863053
vt 0.065485 0.684025
vt 0.051066 0.700266
vt 0.033117 0.684025
vt 0.000749 0.684025
vt 0.018698 0.700266
vt 0.001027 0.716888
vt 0.001305 0.749751
vt 0.018976 0.733129
vt 0.033607 0.749345
vt 0.065910 0.748940
vt 0.051278 0.732723
vt 0.036647 0.716507
vt 0.065697 0.716482
vt 0.072144 0.587348
vt 0.117220 0.542690
vt 0.072436 0.542690
vt 0.117196 0.631919
vt 0.162271 0.587261
vt 0.162003 0.542690
vt 0.071852 0.632006
vt 0.162539 0.631833
vn -0.7649 -0.4768 0.4331
vn -0.4768 0.7650 0.4330
vn -0.7650 0.4768 0.4330
vn 0.7650 0.4769 0.4329
vn 0.4769 0.7649 0.4330
vn 0.7650 -0.4769 0.4329
vn -0.5540 0.0000 0.8325
vn 0.0000 0.5539 0.8326
vn 0.5540 0.0000 0.8325
vn 0.0000 -0.5539 0.8326
vn 0.4769 -0.7649 0.4330
vn -0.0000 0.0000 -1.0000
vn -0.4768 -0.7649 0.4331
usemtl clock_texture.004
s 1
f 1/1/1 2/2/1 3/3/1
f 4/4/2 5/5/2 6/6/2
f 4/4/3 3/3/3 5/5/3
f 7/7/4 8/8/4 9/9/4
f 7/7/5 6/6/5 8/8/5
f 10/10/6 9/9/6 11/11/6
f 12/12/7 5/5/7 3/3/7 2/2/7
f 12/12/8 8/8/8 6/6/8 5/5/8
f 12/12/9 11/11/9 9/9/9 8/8/9
f 2/2/10 13/13/10 11/11/10 12/12/10
f 11/11/11 13/13/11 10/10/11
f 3/14/12 13/15/12 1/16/12
f 3/14/12 6/17/12 9/18/12 13/15/12
f 13/13/13 2/2/13 1/1/13
f 13/15/12 9/18/12 10/19/12
f 6/17/12 3/14/12 4/20/12
f 9/18/12 6/17/12 7/21/12
o hour_hand_clock_texture
v 0.022486 6.911082 0.860044
v 0.046086 7.036073 0.861814
v 0.008227 7.060927 0.865998
v 0.008227 6.873858 0.860436
v -0.006032 6.911082 0.860044
v -0.029632 7.036073 0.861814
v 0.008227 7.129229 0.860436
v 0.033420 7.092004 0.860044
v -0.016966 7.092004 0.860044
v 0.033420 7.092004 0.860044
v 0.008227 7.129229 0.860044
v 0.046086 7.036073 0.857957
v 0.008227 7.060927 0.857957
v -0.016966 7.092004 0.860044
v -0.029632 7.036073 0.857957
v 0.022486 6.911082 0.860044
v 0.008227 6.873858 0.860044
v -0.006032 6.911082 0.860044
vt 0.612135 0.670221
vt 0.620668 0.691911
vt 0.614670 0.697689
vt 0.608285 0.664018
vt 0.606973 0.671200
vt 0.606973 0.694508
vt 0.617008 0.710018
vt 0.620334 0.702461
vt 0.611146 0.704204
vt 0.000000 0.000000
vt 1.000000 0.000000
vt 1.000000 1.000000
vt 0.000000 1.000000
vt 1.000000 0.000000
vt 1.000000 1.000000
vt 0.000000 1.000000
vt 0.000000 0.000000
vt 1.000000 0.000000
vt 1.000000 1.000000
vt 0.000000 1.000000
vt 0.000000 0.000000
vt 1.000000 0.000000
vt 1.000000 1.000000
vt 0.000000 1.000000
vt 0.000000 0.000000
vt 0.000000 1.000000
vt 1.000000 0.000000
vt 1.000000 1.000000
vt 0.000000 1.000000
vt 0.000000 0.000000
vt 1.000000 1.000000
vt 0.000000 1.000000
vt 0.000000 0.000000
vt 1.000000 0.000000
vt 1.000000 1.000000
vt 0.000000 1.000000
vt 0.000000 0.000000
vt 1.000000 0.000000
vt 1.000000 1.000000
vt 0.000000 1.000000
vt 0.000000 0.000000
vt 1.000000 0.000000
vt 1.000000 1.000000
vt 0.000000 1.000000
vt 0.000000 0.000000
vt 1.000000 0.000000
vt 0.000000 0.000000
vn 0.0946 -0.0305 0.9950
vn -0.0946 -0.0305 0.9950
vn 0.1434 0.0729 0.9870
vn -0.1434 0.0729 0.9870
vn 0.8279 0.5608 0.0000
vn 0.8282 0.5604 0.0000
vn 0.0367 0.0373 -0.9986
vn 0.9753 0.2209 0.0000
vn -0.8279 0.5608 0.0000
vn -0.8282 0.5604 0.0000
vn -0.0367 0.0373 -0.9986
vn -0.9753 0.2209 0.0000
vn 0.9826 -0.1855 0.0000
vn 0.9338 -0.3578 0.0000
vn -0.9826 -0.1855 0.0000
vn -0.9338 -0.3578 0.0000
vn -0.0032 -0.0136 -0.9999
vn -0.0000 -0.0136 -0.9999
vn 0.0032 -0.0136 -0.9999
usemtl clock_texture.004
s 1
f 14/22/14 15/23/14 16/24/14 17/25/14
f 18/26/15 17/25/15 16/24/15 19/27/15
f 20/28/16 16/24/16 15/23/16 21/29/16
f 19/27/17 16/24/17 20/28/17 22/30/17
usemtl clock_texture_NONE
f 23/31/18 24/32/18 20/33/18 21/34/19
f 23/31/20 25/35/20 26/36/20 24/37/20
f 21/38/21 15/39/21 25/40/21 23/41/21
f 22/42/22 20/43/22 24/44/22 27/45/23
f 27/46/24 24/32/24 26/36/24 28/47/24
f 27/46/25 28/48/25 19/49/25 22/50/25
f 29/51/26 25/35/26 15/52/26 14/53/26
f 14/54/27 17/55/27 30/56/27 29/57/27
f 18/58/28 19/59/28 28/60/28 31/61/28
f 31/62/29 30/63/29 17/64/29 18/65/29
f 28/66/30 26/67/31 30/56/31 31/61/30
f 30/68/31 26/67/31 25/40/32 29/57/32
